<svg width="99" height="27" viewBox="0 0 99 27" fill="none" xmlns="http://www.w3.org/2000/svg">
    <g clip-path="url(#clip0_385_1106)">
        <path
            d="M40.2834 18.468C40.4153 18.0101 40.4634 17.5625 40.4634 16.8661C40.4634 11.4326 36.9469 7.70508 31.7068 7.70508C26.4668 7.70508 22.9502 11.3975 22.9502 16.8661C22.9502 22.3346 26.4674 26.0271 31.7068 26.0271C35.8753 26.0271 39.248 23.884 39.8872 20.4539H35.2749C34.7314 21.7577 33.3607 22.1956 31.7068 22.1956C29.1735 22.1956 27.4199 20.6222 27.4199 18.4687H40.2834V18.468ZM27.4292 14.9848C27.4292 13.4374 28.8 11.5366 31.7068 11.5366C34.6136 11.5366 35.9201 13.4633 35.878 14.9848H27.4292Z"
            fill="#1A1A1A" />
        <path
            d="M65.7243 24.0548L66.2819 25.6782H70.1579V8.05322H65.8515V18.0847C65.8515 20.1746 64.703 22.1949 61.9039 22.1949C59.1048 22.1949 57.9201 19.8264 57.9201 17.7365V8.05322H53.6138V17.7365C53.6138 22.1254 55.5521 26.0264 61.5451 26.0264C63.1669 26.0264 65.1206 24.9844 65.7243 24.0548Z"
            fill="#1A1A1A" />
        <path
            d="M97.5018 25.6782V15.6467C97.5018 10.2133 94.8104 7.70508 90.2886 7.70508C87.9915 7.70508 86.5203 8.71524 85.5157 9.75984C85.4441 9.86443 85.3008 9.86443 85.2286 9.75984C84.2955 8.54049 82.6805 7.70508 80.5634 7.70508C78.761 7.70508 76.7845 8.69186 75.9947 9.58899L75.4673 8.05393H71.5913V25.6782H75.8977V15.8559C75.8977 13.4179 76.6875 11.5366 79.1278 11.5366C81.5681 11.5366 82.394 13.7661 82.394 15.8559V25.6782H86.7004V15.8559C86.7004 13.4179 87.4902 11.5366 89.9305 11.5366C92.3708 11.5366 93.1961 13.7661 93.1961 15.8559V25.6782H97.5024H97.5018Z"
            fill="#1A1A1A" />
        <path d="M45.9128 25.6781V1.15674H41.6064V25.6781H45.9128Z" fill="#1A1A1A" />
        <path d="M52.0046 25.6781V1.15674H47.6982V25.6781H52.0039H52.0046Z" fill="#1A1A1A" />
        <path d="M0.674316 1.19629H5.64263L13.6684 25.678H8.70005L0.674316 1.19629Z" fill="#1A1A1A" />
        <path d="M26.2802 1.19629H21.3119L13.2861 25.678H18.2544L26.2802 1.19629Z" fill="#1A1A1A" />
    </g>
    <defs>
        <clipPath id="clip0_385_1106">
            <rect width="97.9534" height="26" fill="white" transform="translate(0.349121 0.830078)" />
        </clipPath>
    </defs>
</svg>
