<svg width="661" height="99" viewBox="0 0 661 99" fill="none" xmlns="http://www.w3.org/2000/svg">
<path d="M147.251 97.3119C150.66 97.8339 154.103 98.1013 157.551 98.1119C160.791 98.1003 164.024 97.8328 167.221 97.3119L169.411 30.8719L190.641 77.1719C192.033 77.434 193.439 77.6143 194.851 77.7119C196.201 77.8019 197.561 77.8519 198.911 77.8519C200.471 77.8519 202.031 77.7819 203.591 77.6419C205.151 77.5119 206.661 77.3519 208.121 77.1719L230.901 31.8119L233.711 97.3119C237.172 97.8454 240.669 98.1129 244.171 98.1119C247.931 98.0945 251.686 97.8273 255.411 97.3119L250.101 0.811874C246.33 0.262559 242.523 -0.00817109 238.711 0.00187604C235.105 -0.0254349 231.503 0.245486 227.941 0.811874L201.411 56.1019L175.651 0.811874C171.674 0.27062 167.665 5.13508e-07 163.651 0.00187604C159.638 0.0135344 155.63 0.284094 151.651 0.811874L147.281 97.3119H147.251ZM147.251 97.3119C150.66 97.8339 154.103 98.1013 157.551 98.1119C160.791 98.1003 164.024 97.8328 167.221 97.3119L169.411 30.8719L190.641 77.1719C192.033 77.434 193.439 77.6143 194.851 77.7119C196.201 77.8019 197.561 77.8519 198.911 77.8519C200.471 77.8519 202.031 77.7819 203.591 77.6419C205.151 77.5119 206.661 77.3519 208.121 77.1719L230.901 31.8119L233.711 97.3119C237.172 97.8454 240.669 98.1129 244.171 98.1119C247.931 98.0945 251.686 97.8273 255.411 97.3119L250.101 0.811874C246.33 0.262559 242.523 -0.00817109 238.711 0.00187604C235.105 -0.0254349 231.503 0.245486 227.941 0.811874L201.411 56.1019L175.651 0.811874C171.674 0.27062 167.665 5.13508e-07 163.651 0.00187604C159.638 0.0135344 155.63 0.284094 151.651 0.811874L147.281 97.3119H147.251Z" fill="white"/>
<path d="M313.561 21.212L331.791 77.962L338.071 97.312C341.898 97.8497 345.757 98.117 349.621 98.112C353.794 98.1025 357.962 97.8354 362.101 97.312L326.981 0.811951C324.591 0.541951 322.401 0.34195 320.431 0.20195C318.461 0.06195 316.431 0.00195312 314.341 0.00195312C311.951 0.00195312 309.761 0.07195 307.791 0.20195C305.821 0.33195 303.731 0.541951 301.541 0.811951L266.111 97.312C269.888 97.8456 273.697 98.1129 277.511 98.112C281.124 98.1027 284.731 97.8219 288.301 97.272L313.561 21.212ZM349.621 98.112C353.794 98.1025 357.962 97.8354 362.101 97.312L326.981 0.811951C324.591 0.541951 322.401 0.34195 320.431 0.20195C318.461 0.06195 316.431 0.00195312 314.341 0.00195312" fill="white"/>
<path d="M371.601 97.3121C374.907 97.851 378.252 98.1185 381.601 98.1121C384.997 98.1131 388.387 97.8456 391.741 97.3121V35.972L435.441 97.3121C438.593 97.8203 441.779 98.0877 444.971 98.1121C447.987 98.0793 450.996 97.8118 453.971 97.3121V0.812105C450.878 0.265598 447.742 -0.00546208 444.601 0.00210736C440.996 0.015098 437.397 0.285786 433.831 0.812105V62.282L390.501 0.812105C387.305 0.283063 384.071 0.0121911 380.831 0.00210736C377.744 0.0165929 374.663 0.287522 371.621 0.812105V97.3121H371.601ZM371.601 97.3121C374.907 97.851 378.252 98.1185 381.601 98.1121C384.997 98.1131 388.387 97.8456 391.741 97.3121V35.972L435.441 97.3121C438.593 97.8203 441.779 98.0877 444.971 98.1121C447.987 98.0793 450.996 97.8118 453.971 97.3121V0.812105C450.878 0.265598 447.742 -0.00546208 444.601 0.00210736C440.996 0.015098 437.397 0.285786 433.831 0.812105V62.282L390.501 0.812105C387.305 0.283063 384.071 0.0121911 380.831 0.00210736C377.744 0.0165929 374.663 0.287522 371.621 0.812105V97.3121H371.601Z" fill="white"/>
<path d="M464.861 97.3121C468.167 97.8501 471.512 98.1177 474.861 98.1121C478.257 98.1131 481.648 97.8456 485.001 97.3121V35.9721L528.711 97.3121C531.86 97.8207 535.042 98.0881 538.231 98.1121C541.247 98.0793 544.257 97.8118 547.231 97.3121V0.812088C544.141 0.266014 541.009 -0.00504535 537.871 0.00209041C534.267 0.0143283 530.667 0.28502 527.101 0.812088V62.2821L483.711 0.812088C480.512 0.283028 477.274 0.0121566 474.031 0.00209041C470.944 0.0170359 467.864 0.287962 464.821 0.812088V97.3121H464.861ZM464.861 97.3121C468.167 97.8501 471.512 98.1177 474.861 98.1121C478.257 98.1131 481.648 97.8456 485.001 97.3121V35.9721L528.711 97.3121C531.86 97.8207 535.042 98.0881 538.231 98.1121C541.247 98.0793 544.257 97.8118 547.231 97.3121V0.812088C544.141 0.266014 541.009 -0.00504535 537.871 0.00209041C534.267 0.0143283 530.667 0.28502 527.101 0.812088V62.2821L483.711 0.812088C480.512 0.283028 477.274 0.0121566 474.031 0.00209041C470.944 0.0170359 467.864 0.287962 464.821 0.812088V97.3121H464.861Z" fill="white"/>
<path d="M604.981 21.2117L623.211 77.9617L629.501 97.3117C633.328 97.8494 637.187 98.1167 641.051 98.1117C645.224 98.1029 649.392 97.8357 653.531 97.3117L618.421 0.811721C616.021 0.541721 613.841 0.341715 611.861 0.211715C609.881 0.0817158 607.861 0.0117188 605.771 0.0117188C603.381 0.0117188 601.191 0.0717158 599.221 0.211715C597.251 0.351715 595.161 0.541721 592.981 0.811721L557.501 97.3117C561.274 97.8456 565.08 98.1129 568.891 98.1117C572.504 98.1024 576.111 97.8216 579.681 97.2717L604.941 21.2117H604.981ZM641.041 98.1117C645.214 98.1029 649.382 97.8357 653.521 97.3117L618.411 0.811721C616.011 0.541721 613.831 0.341715 611.851 0.211715C609.871 0.0817158 607.851 0.0117188 605.761 0.0117188" fill="white"/>
<path d="M650.361 12.5017C650.021 12.5017 649.661 12.5017 649.301 12.5017H647.071V17.9517H645.171V4.68164H649.301C652.581 4.68164 654.901 5.34166 654.901 8.56166C654.988 9.38138 654.771 10.2045 654.292 10.8753C653.813 11.546 653.105 12.0179 652.301 12.2017L655.361 17.9717H653.241L650.361 12.5017ZM647.071 6.36165V10.8417H649.441C651.441 10.8417 652.961 10.6817 652.961 8.60164C652.961 6.52164 651.421 6.36165 649.441 6.36165H647.071Z" fill="white"/>
<path d="M649.571 22.642C647.332 22.642 645.144 21.9781 643.282 20.7342C641.421 19.4904 639.97 17.7224 639.113 15.654C638.256 13.5855 638.032 11.3094 638.469 9.11354C638.906 6.91768 639.984 4.90064 641.567 3.31751C643.15 1.73438 645.167 0.656256 647.363 0.219471C649.559 -0.217314 651.835 0.00685203 653.903 0.863636C655.972 1.72042 657.74 3.17134 658.983 5.0329C660.227 6.89447 660.891 9.08306 660.891 11.322C660.886 14.3226 659.692 17.1988 657.57 19.3206C655.448 21.4424 652.572 22.6367 649.571 22.642ZM649.571 1.64196C647.663 1.64196 645.797 2.20791 644.21 3.26827C642.623 4.32862 641.386 5.83574 640.656 7.59905C639.925 9.36235 639.734 11.3027 640.107 13.1746C640.479 15.0465 641.398 16.766 642.748 18.1156C644.097 19.4651 645.817 20.3842 647.689 20.7566C649.561 21.1289 651.501 20.9378 653.264 20.2074C655.027 19.477 656.535 18.2402 657.595 16.6533C658.655 15.0663 659.221 13.2006 659.221 11.292C659.211 8.73863 658.19 6.29334 656.381 4.49066C654.573 2.68799 652.125 1.67458 649.571 1.67195V1.64196Z" fill="white"/>
<path d="M101.391 34.8417C102.195 34.0796 102.838 33.1637 103.281 32.1485C103.724 31.1333 103.959 30.0394 103.971 28.9317V2.23162C103.983 1.79637 103.873 1.36642 103.654 0.990129C103.435 0.613838 103.116 0.306126 102.731 0.10161C102.587 0.0495781 102.432 0.0315333 102.28 0.0488754C102.127 0.0662174 101.98 0.118486 101.851 0.201616L51.9814 33.8417L75.1314 49.7317C75.3616 50.2449 75.523 50.7862 75.6114 51.3417C75.23 52.0545 74.7741 52.7249 74.2514 53.3417L101.391 34.8617" fill="white"/>
<path d="M2.58122 34.9317C1.77698 34.1677 1.13424 33.2501 0.691077 32.2332C0.247909 31.2163 0.0133233 30.1209 0.00121905 29.0117V2.3117C-0.0128375 1.87727 0.0949029 1.44757 0.312262 1.07117C0.529621 0.694766 0.847935 0.386662 1.23122 0.181688C1.37573 0.129656 1.53028 0.111612 1.68289 0.128954C1.8355 0.146296 1.98207 0.198565 2.11122 0.281694L52.0512 33.8417L28.8412 49.8417C28.6071 50.3542 28.4423 50.8956 28.3512 51.4517C28.7428 52.117 29.2019 52.7403 29.7212 53.3117L2.58122 34.9317Z" fill="white"/>
<path d="M3.30129 67.1118C3.30129 67.1118 0.0712891 64.9318 0.0712891 68.8318V95.7118C0.0712891 95.7118 0.0712924 99.6118 3.30129 97.4318L22.5813 84.4318C22.5813 84.4318 25.8213 82.2518 22.5813 80.0718L3.30129 67.0718V67.1118Z" fill="white"/>
<path d="M100.811 67.1118C100.811 67.1118 104.041 64.9318 104.041 68.8318V95.7118C104.041 95.7118 104.041 99.6118 100.811 97.4318L81.5015 84.4218C81.5015 84.4218 78.2615 82.2418 81.5015 80.0618L100.781 67.0618L100.811 67.1118Z" fill="white"/>
<path d="M51.8916 67.1917C53.1159 67.1898 54.315 66.8433 55.3516 66.1917L74.4516 53.1917C77.6816 51.0017 74.4516 48.8217 74.4516 48.8217L52.0216 33.7617L29.6416 48.8217C29.6416 48.8217 26.4116 51.0017 29.6416 53.1917L48.7416 66.1917C49.7823 66.8421 50.9843 67.1885 52.2116 67.1917H51.9016" fill="white"/>
<path d="M52.0812 67.202H51.9712C50.8216 67.1616 49.7035 66.8165 48.7312 66.202L29.6312 53.202C29.236 52.9997 28.898 52.7014 28.6481 52.3345C28.3982 51.9676 28.2446 51.5438 28.2012 51.102C28.2679 50.6435 28.4306 50.2044 28.6787 49.8132C28.9269 49.422 29.2549 49.0876 29.6412 48.832L52.0212 33.772L74.5012 48.872C74.8856 49.1287 75.2117 49.4635 75.4581 49.8546C75.7045 50.2457 75.8657 50.6844 75.9312 51.142C75.8905 51.5846 75.7379 52.0095 75.4877 52.3769C75.2376 52.7443 74.8981 53.042 74.5012 53.242L55.4012 66.242C54.4289 66.8565 53.3107 67.2017 52.1612 67.242" fill="white"/>
</svg>
