<svg version="1.1" id="Layer_3" xmlns="http://www.w3.org/2000/svg" xmlns:xlink="http://www.w3.org/1999/xlink" x="0px" y="0px" viewBox="0 0 1064.947 509.974">
    <g>
        <g>
            <path d="M484.33,208.499L302.608,26.777c-25.123-25.106-65.844-25.106-90.967,0L29.924,208.499
			c-25.114,25.115-25.114,65.848,0,90.963l181.718,181.722c25.123,25.123,65.844,25.123,90.967,0L484.33,299.461
			C509.436,274.347,509.436,233.613,484.33,208.499z M154.503,356.609c-56.674-56.683-56.674-148.566,0-205.248
			c56.674-56.674,148.574-56.674,205.248,0c56.678,56.683,56.678,148.566,0,205.248
			C303.077,413.283,211.177,413.283,154.503,356.609z"></path>
            <path d="M318.485,192.626c-33.879-33.891-88.833-33.891-122.725,0c-33.891,33.883-33.891,88.834,0,122.717
			c33.892,33.9,88.846,33.9,122.725,0C352.381,281.46,352.381,226.509,318.485,192.626z"></path>
        </g>
    </g>
    <path d="M683.456,307.014c-12.628,12.632-27.806,18.946-45.525,18.946c-17.724,0-32.901-6.314-45.529-18.946
	c-12.44-12.444-18.662-27.618-18.662-45.529c0-17.719,6.222-32.893,18.662-45.53c12.628-12.44,27.806-18.662,45.529-18.662
	c17.719,0,32.897,6.222,45.525,18.662c12.445,12.637,18.667,27.81,18.667,45.53C702.123,279.396,695.901,294.57,683.456,307.014z
	 M665.362,261.485c0-7.729-2.646-14.231-7.921-19.51c-5.467-5.279-11.973-7.921-19.51-7.921c-7.545,0-14.047,2.642-19.514,7.921
	c-5.279,5.279-7.916,11.781-7.916,19.51c0,7.545,2.638,14.047,7.916,19.514c5.467,5.471,11.969,8.2,19.514,8.2
	c7.537,0,14.043-2.729,19.51-8.2C662.716,275.532,665.362,269.03,665.362,261.485v-0.284V261.485z"></path>
    <path d="M781.152,234.055h-27.43v87.098h-36.757V160.532h36.757v41.285h27.43V234.055v-0.279V234.055z"></path>
    <path d="M894.13,307.014c-12.632,12.632-27.806,18.946-45.525,18.946c-17.724,0-32.901-6.314-45.529-18.946
	c-12.44-12.444-18.663-27.618-18.663-45.529c0-17.719,6.222-32.893,18.663-45.53c12.628-12.44,27.806-18.662,45.529-18.662
	c17.719,0,32.893,6.222,45.525,18.662c12.444,12.637,18.667,27.81,18.667,45.53C912.797,279.396,906.575,294.57,894.13,307.014z
	 M876.036,261.485c0-7.729-2.642-14.231-7.921-19.51c-5.467-5.279-11.973-7.921-19.51-7.921c-7.545,0-14.047,2.642-19.514,7.921
	c-5.279,5.279-7.916,11.781-7.916,19.51c0,7.545,2.638,14.047,7.916,19.514c5.467,5.471,11.969,8.2,19.514,8.2
	c7.536,0,14.043-2.729,19.51-8.2C873.394,275.532,876.036,269.03,876.036,261.485v-0.284V261.485z"></path>
    <g>
        <path d="M1018.96,345.221c0,0-8.41,29.635-37.469,29.635s-47.774,0-47.774,0l7.733-36.574c0,0,17.501,0,27.749,0
		s13.043-9.51,13.043-9.51l33.115-117.131h41.237L1018.96,345.221z"></path>
        <path d="M936.988,287.653c0,0,8.41,29.635,37.469,29.635s47.773,0,47.773,0l-7.733-36.574c0,0-17.501,0-27.749,0
		s-13.043-9.51-13.043-9.51l-16.689-59.563h-41.237L936.988,287.653z"></path>
    </g>
</svg>