<svg
        id="Capa_1"
        xmlns="http://www.w3.org/2000/svg"
        viewBox="0 0 192 50"
        preserveAspectRatio="none"
        fill="white"
>
    <defs></defs>
    <path
            class="cls-1"
            d="m12.7,18.02c2.55,0,4.62-2.07,4.62-4.62s-2.07-4.62-4.62-4.62-4.62,2.07-4.62,4.62,2.07,4.62,4.62,4.62Z"
    />
    <path
            class="cls-1"
            d="m19.52,6.57c-1.82-1.82-4.25-2.83-6.83-2.83v.83c2.36,0,4.57.92,6.24,2.58,1.67,1.67,2.58,3.88,2.58,6.24s-.92,4.57-2.58,6.24c-1.67,1.67-3.88,2.58-6.24,2.58s-4.57-.92-6.24-2.58c-1.67-1.67-2.58-3.88-2.58-6.24,0-1.68.46-3.28,1.34-4.68.29.15.61.23.96.23,1.14,0,2.08-.93,2.08-2.08s-.93-2.08-2.08-2.08-2.08.93-2.08,2.08c0,.5.18.96.47,1.31-1,1.55-1.53,3.34-1.53,5.21,0,2.58,1,5,2.83,6.83,1.82,1.82,4.25,2.83,6.83,2.83s5-1,6.83-2.83c1.82-1.82,2.83-4.25,2.83-6.83s-1-5-2.83-6.83Zm-13.35-.94c.69,0,1.24.56,1.24,1.24s-.56,1.24-1.24,1.24-1.24-.56-1.24-1.24.56-1.24,1.24-1.24Z"
    />
    <path
            class="cls-1"
            d="m33.12,10.17h-3.79v-1.59h9.38v1.59h-3.79v10.53h-1.8v-10.53Z"
    />
    <path
            class="cls-1"
            d="m39.84,8.32h1.68v5.19c.47-1.09,1.51-1.68,2.81-1.68,1.97,0,3.26,1.42,3.26,3.5v5.37h-1.68v-5.04c0-1.39-.81-2.32-2.04-2.32-1.37,0-2.34,1.11-2.34,2.63v4.73h-1.68v-12.38Z"
    />
    <path
            class="cls-1"
            d="m48.87,16.28c0-2.44,1.52-4.45,4.21-4.45s4.14,1.92,4.14,4.14c0,.23-.02.5-.04.66h-6.67c.14,1.64,1.21,2.77,2.74,2.77,1.28,0,2.11-.55,2.36-1.54h1.68c-.31,1.8-1.89,2.98-4.04,2.98-2.7,0-4.38-2.13-4.38-4.55Zm6.65-.88c-.1-1.33-1-2.22-2.44-2.22s-2.25.76-2.51,2.22h4.95Z"
    />
    <path
            class="cls-1"
            d="m62.43,8.58h4.74c2.44,0,3.93,1.47,3.93,3.64,0,1.3-.71,2.2-1.78,2.74.88.52,1.45,1.47,1.52,2.65l.24,3.1h-1.75l-.24-2.94c-.09-1.08-.8-1.84-1.84-1.84h-3.03v4.78h-1.8v-12.12Zm4.69,5.75c1.58,0,2.18-1.02,2.18-2.11s-.61-2.08-2.18-2.08h-2.89v4.19h2.89Z"
    />
    <path
            class="cls-1"
            d="m72.18,16.28c0-2.44,1.52-4.45,4.21-4.45s4.14,1.92,4.14,4.14c0,.23-.02.5-.04.66h-6.67c.14,1.64,1.21,2.77,2.74,2.77,1.28,0,2.11-.55,2.36-1.54h1.68c-.31,1.8-1.89,2.98-4.04,2.98-2.7,0-4.38-2.13-4.38-4.55Zm6.65-.88c-.1-1.33-1-2.22-2.44-2.22s-2.25.76-2.51,2.22h4.95Z"
    />
    <path
            class="cls-1"
            d="m82.03,11.97h1.68v1.54c.47-1.09,1.51-1.68,2.81-1.68,1.97,0,3.26,1.42,3.26,3.5v5.37h-1.68v-5.04c0-1.39-.81-2.32-2.04-2.32-1.37,0-2.34,1.11-2.34,2.63v4.73h-1.68v-8.73Z"
    />
    <path
            class="cls-1"
            d="m91.11,16.34c0-2.6,1.51-4.5,4.17-4.5,1.19,0,2.23.57,2.75,1.42v-4.93h1.68v12.38h-1.68v-1.3c-.52.87-1.59,1.44-2.74,1.44-2.68,0-4.19-1.91-4.19-4.5Zm4.38,3.03c1.61,0,2.68-1.21,2.68-3.03s-1.07-3.03-2.68-3.03-2.68,1.21-2.68,3.03,1.06,3.03,2.68,3.03Z"
    />
    <path
            class="cls-1"
            d="m101.13,16.28c0-2.44,1.52-4.45,4.21-4.45s4.14,1.92,4.14,4.14c0,.23-.02.5-.04.66h-6.67c.14,1.64,1.21,2.77,2.74,2.77,1.28,0,2.11-.55,2.36-1.54h1.68c-.31,1.8-1.89,2.98-4.04,2.98-2.7,0-4.38-2.13-4.38-4.55Zm6.65-.88c-.1-1.33-1-2.22-2.44-2.22s-2.25.76-2.51,2.22h4.95Z"
    />
    <path
            class="cls-1"
            d="m112.67,16.75v3.95h-1.68v-8.73h1.68v1.68c.4-1.16,1.09-1.68,2.32-1.68h1.06v1.45h-1.26c-1.59,0-2.11,1.42-2.11,3.32Z"
    />
    <path
            class="cls-1"
            d="m120.67,8.58h2.01l5.83,9.33v-9.33h1.8v12.12h-1.99l-5.85-9.32v9.32h-1.8v-12.12Z"
    />
    <path
            class="cls-1"
            d="m131.8,16.28c0-2.44,1.52-4.45,4.21-4.45s4.14,1.92,4.14,4.14c0,.23-.02.5-.04.66h-6.67c.14,1.64,1.21,2.77,2.74,2.77,1.28,0,2.11-.55,2.36-1.54h1.68c-.31,1.8-1.89,2.98-4.04,2.98-2.7,0-4.38-2.13-4.38-4.55Zm6.65-.88c-.1-1.33-1-2.22-2.44-2.22s-2.25.76-2.51,2.22h4.95Z"
    />
    <path
            class="cls-1"
            d="m144.11,9.24v2.74h2.58v1.45h-2.58v4.36c0,.94.52,1.45,1.35,1.45h1.23v1.45h-1.35c-1.77,0-2.91-1.07-2.91-2.86v-4.42h-1.78v-1.45h1.78v-2.74h1.68Z"
    />
    <path
            class="cls-1"
            d="m147.52,11.97h1.68l1.8,6.49,1.97-6.49h1.59l1.96,6.49,1.78-6.49h1.7l-2.7,8.73h-1.56l-1.97-6.51-1.99,6.51h-1.56l-2.7-8.73Z"
    />
    <path
            class="cls-1"
            d="m160.36,16.34c0-2.62,1.89-4.5,4.5-4.5s4.48,1.89,4.48,4.5-1.87,4.5-4.48,4.5-4.5-1.89-4.5-4.5Zm4.5,3.03c1.64,0,2.77-1.25,2.77-3.03s-1.13-3.03-2.77-3.03-2.79,1.25-2.79,3.03,1.13,3.03,2.79,3.03Z"
    />
    <path
            class="cls-1"
            d="m172.27,16.75v3.95h-1.68v-8.73h1.68v1.68c.4-1.16,1.09-1.68,2.32-1.68h1.06v1.45h-1.26c-1.59,0-2.11,1.42-2.11,3.32Z"
    />
    <path
            class="cls-1"
            d="m176.82,8.32h1.7v7.14l3.79-3.48h2.18l-3.67,3.41,4,5.32h-2.08l-3.13-4.17-1.09,1v3.17h-1.7v-12.38Z"
    />
    <path
            class="cls-1"
            d="m186.03,13.38c0-.85.62-1.48,1.48-1.48s1.49.63,1.49,1.48-.62,1.49-1.49,1.49-1.48-.63-1.48-1.49Zm1.48,1.2c.69,0,1.19-.51,1.19-1.2s-.5-1.19-1.19-1.19-1.18.51-1.18,1.19.5,1.2,1.18,1.2Zm-.57-2.02h.65c.33,0,.53.19.53.47,0,.18-.09.31-.21.37.12.07.17.18.18.33l.03.43h-.28l-.04-.39c-.01-.14-.07-.2-.21-.2h-.35v.59h-.3v-1.6Zm.62.75c.19,0,.26-.12.26-.25s-.07-.25-.26-.25h-.33v.49h.33Z"
    />
</svg>